<svg width="160" height="160" viewBox="0 0 16 16" xmlns="http://www.w3.org/2000/svg" shape-rendering="crispEdges"><rect x="2" y="4" width="1" height="1" fill="rgb(160,122,80)" /><rect x="13" y="4" width="1" height="1" fill="rgb(160,122,80)" /><rect x="2" y="5" width="1" height="1" fill="rgb(160,122,80)" /><rect x="13" y="5" width="1" height="1" fill="rgb(160,122,80)" /><rect x="4" y="5" width="1" height="1" fill="rgb(160,122,80)" /><rect x="11" y="5" width="1" height="1" fill="rgb(160,122,80)" /><rect x="3" y="6" width="1" height="1" fill="rgb(160,122,80)" /><rect x="12" y="6" width="1" height="1" fill="rgb(160,122,80)" /><rect x="3" y="7" width="1" height="1" fill="rgb(160,122,80)" /><rect x="12" y="7" width="1" height="1" fill="rgb(160,122,80)" /><rect x="3" y="8" width="1" height="1" fill="rgb(160,122,80)" /><rect x="12" y="8" width="1" height="1" fill="rgb(160,122,80)" /><rect x="2" y="9" width="1" height="1" fill="rgb(160,122,80)" /><rect x="13" y="9" width="1" height="1" fill="rgb(160,122,80)" /><rect x="5" y="9" width="1" height="1" fill="rgb(160,122,80)" /><rect x="10" y="9" width="1" height="1" fill="rgb(160,122,80)" /><rect x="3" y="10" width="1" height="1" fill="rgb(160,122,80)" /><rect x="12" y="10" width="1" height="1" fill="rgb(160,122,80)" /><rect x="4" y="10" width="1" height="1" fill="rgb(160,122,80)" /><rect x="11" y="10" width="1" height="1" fill="rgb(160,122,80)" /><rect x="5" y="10" width="1" height="1" fill="rgb(160,122,80)" /><rect x="10" y="10" width="1" height="1" fill="rgb(160,122,80)" /><rect x="2" y="11" width="1" height="1" fill="rgb(160,122,80)" /><rect x="13" y="11" width="1" height="1" fill="rgb(160,122,80)" /><rect x="3" y="11" width="1" height="1" fill="rgb(160,122,80)" /><rect x="12" y="11" width="1" height="1" fill="rgb(160,122,80)" /><rect x="5" y="11" width="1" height="1" fill="rgb(160,122,80)" /><rect x="10" y="11" width="1" height="1" fill="rgb(160,122,80)" /><rect x="6" y="11" width="1" height="1" fill="rgb(160,122,80)" /><rect x="9" y="11" width="1" height="1" fill="rgb(160,122,80)" /><rect x="3" y="12" width="1" height="1" fill="rgb(160,122,80)" /><rect x="12" y="12" width="1" height="1" fill="rgb(160,122,80)" /><rect x="4" y="12" width="1" height="1" fill="rgb(160,122,80)" /><rect x="11" y="12" width="1" height="1" fill="rgb(160,122,80)" /><rect x="5" y="12" width="1" height="1" fill="rgb(160,122,80)" /><rect x="10" y="12" width="1" height="1" fill="rgb(160,122,80)" /><rect x="3" y="6" width="1" height="1" fill="white" /><rect x="12" y="6" width="1" height="1" fill="white" /><rect x="3" y="6" width="0.4" height="0.4" fill="black" /><rect x="12.6" y="6" width="0.4" height="0.4" fill="black" /></svg>