<svg width="64" height="64" xmlns="http://www.w3.org/2000/svg"><rect x="22" y="4" width="2" height="2" fill="#FFFFFF" /><rect x="24" y="4" width="2" height="2" fill="#FFFFFF" /><rect x="26" y="4" width="2" height="2" fill="#FFFFFF" /><rect x="28" y="4" width="2" height="2" fill="#FFFFFF" /><rect x="30" y="4" width="2" height="2" fill="#FFFFFF" /><rect x="32" y="4" width="2" height="2" fill="#FFFFFF" /><rect x="20" y="6" width="2" height="2" fill="#FFFFFF" /><rect x="22" y="6" width="2" height="2" fill="#FFFFFF" /><rect x="24" y="6" width="2" height="2" fill="#FFFFFF" /><rect x="26" y="6" width="2" height="2" fill="#FFFFFF" /><rect x="28" y="6" width="2" height="2" fill="#FFFFFF" /><rect x="30" y="6" width="2" height="2" fill="#FFFFFF" /><rect x="32" y="6" width="2" height="2" fill="#FFFFFF" /><rect x="34" y="6" width="2" height="2" fill="#FFFFFF" /><rect x="20" y="8" width="2" height="2" fill="#FFFFFF" /><rect x="22" y="8" width="2" height="2" fill="#FFFFFF" /><rect x="24" y="8" width="2" height="2" fill="#FFFFFF" /><rect x="26" y="8" width="2" height="2" fill="#FFFFFF" /><rect x="28" y="8" width="2" height="2" fill="#FFFFFF" /><rect x="30" y="8" width="2" height="2" fill="#FFFFFF" /><rect x="32" y="8" width="2" height="2" fill="#FFFFFF" /><rect x="34" y="8" width="2" height="2" fill="#FFFFFF" /><rect x="20" y="10" width="2" height="2" fill="#FFFFFF" /><rect x="22" y="10" width="2" height="2" fill="#FFFFFF" /><rect x="24" y="10" width="2" height="2" fill="#FFFFFF" /><rect x="26" y="10" width="2" height="2" fill="#FFFFFF" /><rect x="28" y="10" width="2" height="2" fill="#FFFFFF" /><rect x="30" y="10" width="2" height="2" fill="#FFFFFF" /><rect x="32" y="10" width="2" height="2" fill="#FFFFFF" /><rect x="34" y="10" width="2" height="2" fill="#FFFFFF" /><rect x="22" y="12" width="2" height="2" fill="#FFFFFF" /><rect x="24" y="12" width="2" height="2" fill="#FFFFFF" /><rect x="26" y="12" width="2" height="2" fill="#FFFFFF" /><rect x="28" y="12" width="2" height="2" fill="#FFFFFF" /><rect x="30" y="12" width="2" height="2" fill="#FFFFFF" /><rect x="32" y="12" width="2" height="2" fill="#FFFFFF" /><rect x="24" y="14" width="2" height="2" fill="#FFFFFF" /><rect x="26" y="14" width="2" height="2" fill="#FFFFFF" /><rect x="28" y="14" width="2" height="2" fill="#FFFFFF" /><rect x="30" y="14" width="2" height="2" fill="#FFFFFF" /><rect x="20" y="16" width="2" height="2" fill="#FFFFFF" /><rect x="22" y="16" width="2" height="2" fill="#FFFFFF" /><rect x="24" y="16" width="2" height="2" fill="#FFFFFF" /><rect x="26" y="16" width="2" height="2" fill="#FFFFFF" /><rect x="28" y="16" width="2" height="2" fill="#FFFFFF" /><rect x="30" y="16" width="2" height="2" fill="#FFFFFF" /><rect x="32" y="16" width="2" height="2" fill="#FFFFFF" /><rect x="34" y="16" width="2" height="2" fill="#FFFFFF" /><rect x="18" y="18" width="2" height="2" fill="#FFFFFF" /><rect x="20" y="18" width="2" height="2" fill="#FFFFFF" /><rect x="22" y="18" width="2" height="2" fill="#FFFFFF" /><rect x="24" y="18" width="2" height="2" fill="#FFFFFF" /><rect x="26" y="18" width="2" height="2" fill="#FFFFFF" /><rect x="28" y="18" width="2" height="2" fill="#FFFFFF" /><rect x="30" y="18" width="2" height="2" fill="#FFFFFF" /><rect x="32" y="18" width="2" height="2" fill="#FFFFFF" /><rect x="34" y="18" width="2" height="2" fill="#FFFFFF" /><rect x="36" y="18" width="2" height="2" fill="#FFFFFF" /><rect x="18" y="20" width="2" height="2" fill="#FFFFFF" /><rect x="20" y="20" width="2" height="2" fill="#FFFFFF" /><rect x="22" y="20" width="2" height="2" fill="#FFFFFF" /><rect x="24" y="20" width="2" height="2" fill="#FFFFFF" /><rect x="26" y="20" width="2" height="2" fill="#FFFFFF" /><rect x="28" y="20" width="2" height="2" fill="#FFFFFF" /><rect x="30" y="20" width="2" height="2" fill="#FFFFFF" /><rect x="32" y="20" width="2" height="2" fill="#FFFFFF" /><rect x="34" y="20" width="2" height="2" fill="#FFFFFF" /><rect x="36" y="20" width="2" height="2" fill="#FFFFFF" /><rect x="18" y="22" width="2" height="2" fill="#FFFFFF" /><rect x="20" y="22" width="2" height="2" fill="#FFFFFF" /><rect x="22" y="22" width="2" height="2" fill="#FFFFFF" /><rect x="24" y="22" width="2" height="2" fill="#FFFFFF" /><rect x="26" y="22" width="2" height="2" fill="#FFFFFF" /><rect x="28" y="22" width="2" height="2" fill="#FFFFFF" /><rect x="30" y="22" width="2" height="2" fill="#FFFFFF" /><rect x="32" y="22" width="2" height="2" fill="#FFFFFF" /><rect x="34" y="22" width="2" height="2" fill="#FFFFFF" /><rect x="36" y="22" width="2" height="2" fill="#FFFFFF" /><rect x="18" y="24" width="2" height="2" fill="#FFFFFF" /><rect x="20" y="24" width="2" height="2" fill="#FFFFFF" /><rect x="22" y="24" width="2" height="2" fill="#FFFFFF" /><rect x="24" y="24" width="2" height="2" fill="#FFFFFF" /><rect x="26" y="24" width="2" height="2" fill="#FFFFFF" /><rect x="28" y="24" width="2" height="2" fill="#FFFFFF" /><rect x="30" y="24" width="2" height="2" fill="#FFFFFF" /><rect x="32" y="24" width="2" height="2" fill="#FFFFFF" /><rect x="34" y="24" width="2" height="2" fill="#FFFFFF" /><rect x="36" y="24" width="2" height="2" fill="#FFFFFF" /><rect x="18" y="26" width="2" height="2" fill="#FFFFFF" /><rect x="20" y="26" width="2" height="2" fill="#FFFFFF" /><rect x="22" y="26" width="2" height="2" fill="#FFFFFF" /><rect x="24" y="26" width="2" height="2" fill="#FFFFFF" /><rect x="26" y="26" width="2" height="2" fill="#FFFFFF" /><rect x="28" y="26" width="2" height="2" fill="#FFFFFF" /><rect x="30" y="26" width="2" height="2" fill="#FFFFFF" /><rect x="32" y="26" width="2" height="2" fill="#FFFFFF" /><rect x="34" y="26" width="2" height="2" fill="#FFFFFF" /><rect x="36" y="26" width="2" height="2" fill="#FFFFFF" /><rect x="18" y="28" width="2" height="2" fill="#FFFFFF" /><rect x="20" y="28" width="2" height="2" fill="#FFFFFF" /><rect x="34" y="28" width="2" height="2" fill="#FFFFFF" /><rect x="36" y="28" width="2" height="2" fill="#FFFFFF" /><rect x="18" y="30" width="2" height="2" fill="#FFFFFF" /><rect x="20" y="30" width="2" height="2" fill="#FFFFFF" /><rect x="34" y="30" width="2" height="2" fill="#FFFFFF" /><rect x="36" y="30" width="2" height="2" fill="#FFFFFF" /><rect x="18" y="32" width="2" height="2" fill="#FFFFFF" /><rect x="20" y="32" width="2" height="2" fill="#FFFFFF" /><rect x="34" y="32" width="2" height="2" fill="#FFFFFF" /><rect x="36" y="32" width="2" height="2" fill="#FFFFFF" /><rect x="18" y="34" width="2" height="2" fill="#FFFFFF" /><rect x="20" y="34" width="2" height="2" fill="#FFFFFF" /><rect x="34" y="34" width="2" height="2" fill="#FFFFFF" /><rect x="36" y="34" width="2" height="2" fill="#FFFFFF" /><rect x="18" y="36" width="2" height="2" fill="#FFFFFF" /><rect x="20" y="36" width="2" height="2" fill="#FFFFFF" /><rect x="34" y="36" width="2" height="2" fill="#FFFFFF" /><rect x="36" y="36" width="2" height="2" fill="#FFFFFF" /><rect x="18" y="38" width="2" height="2" fill="#FFFFFF" /><rect x="20" y="38" width="2" height="2" fill="#FFFFFF" /><rect x="34" y="38" width="2" height="2" fill="#FFFFFF" /><rect x="36" y="38" width="2" height="2" fill="#FFFFFF" /><rect x="18" y="40" width="2" height="2" fill="#FFFFFF" /><rect x="20" y="40" width="2" height="2" fill="#FFFFFF" /><rect x="34" y="40" width="2" height="2" fill="#FFFFFF" /><rect x="36" y="40" width="2" height="2" fill="#FFFFFF" /><rect x="18" y="42" width="2" height="2" fill="#FFFFFF" /><rect x="20" y="42" width="2" height="2" fill="#FFFFFF" /><rect x="34" y="42" width="2" height="2" fill="#FFFFFF" /><rect x="36" y="42" width="2" height="2" fill="#FFFFFF" /></svg>