<svg width="64" height="64" xmlns="http://www.w3.org/2000/svg"><rect x="20" y="2" width="2" height="2" fill="#FFFFFF" /><rect x="26" y="2" width="2" height="2" fill="#FFFFFF" /><rect x="28" y="2" width="2" height="2" fill="#FFFFFF" /><rect x="34" y="2" width="2" height="2" fill="#FFFFFF" /><rect x="18" y="4" width="2" height="2" fill="#FFFFFF" /><rect x="20" y="4" width="2" height="2" fill="#FFFFFF" /><rect x="22" y="4" width="2" height="2" fill="#FFFFFF" /><rect x="24" y="4" width="2" height="2" fill="#FFFFFF" /><rect x="26" y="4" width="2" height="2" fill="#FFFFFF" /><rect x="28" y="4" width="2" height="2" fill="#FFFFFF" /><rect x="30" y="4" width="2" height="2" fill="#FFFFFF" /><rect x="32" y="4" width="2" height="2" fill="#FFFFFF" /><rect x="34" y="4" width="2" height="2" fill="#FFFFFF" /><rect x="36" y="4" width="2" height="2" fill="#FFFFFF" /><rect x="18" y="6" width="2" height="2" fill="#FFFFFF" /><rect x="20" y="6" width="2" height="2" fill="#FFFFFF" /><rect x="22" y="6" width="2" height="2" fill="#FFFFFF" /><rect x="24" y="6" width="2" height="2" fill="#FFFFFF" /><rect x="26" y="6" width="2" height="2" fill="#FFFFFF" /><rect x="28" y="6" width="2" height="2" fill="#FFFFFF" /><rect x="30" y="6" width="2" height="2" fill="#FFFFFF" /><rect x="32" y="6" width="2" height="2" fill="#FFFFFF" /><rect x="34" y="6" width="2" height="2" fill="#FFFFFF" /><rect x="36" y="6" width="2" height="2" fill="#FFFFFF" /><rect x="20" y="8" width="2" height="2" fill="#FFFFFF" /><rect x="22" y="8" width="2" height="2" fill="#FFFFFF" /><rect x="24" y="8" width="2" height="2" fill="#FFFFFF" /><rect x="26" y="8" width="2" height="2" fill="#FFFFFF" /><rect x="28" y="8" width="2" height="2" fill="#FFFFFF" /><rect x="30" y="8" width="2" height="2" fill="#FFFFFF" /><rect x="32" y="8" width="2" height="2" fill="#FFFFFF" /><rect x="34" y="8" width="2" height="2" fill="#FFFFFF" /><rect x="22" y="10" width="2" height="2" fill="#FFFFFF" /><rect x="24" y="10" width="2" height="2" fill="#FFFFFF" /><rect x="26" y="10" width="2" height="2" fill="#FFFFFF" /><rect x="28" y="10" width="2" height="2" fill="#FFFFFF" /><rect x="30" y="10" width="2" height="2" fill="#FFFFFF" /><rect x="32" y="10" width="2" height="2" fill="#FFFFFF" /></svg>