<svg width="64" height="64" xmlns="http://www.w3.org/2000/svg"><rect x="18" y="26" width="2" height="2" fill="#FFFFFF" /><rect x="20" y="26" width="2" height="2" fill="#FFFFFF" /><rect x="22" y="26" width="2" height="2" fill="#FFFFFF" /><rect x="24" y="26" width="2" height="2" fill="#FFFFFF" /><rect x="26" y="26" width="2" height="2" fill="#FFFFFF" /><rect x="28" y="26" width="2" height="2" fill="#FFFFFF" /><rect x="30" y="26" width="2" height="2" fill="#FFFFFF" /><rect x="32" y="26" width="2" height="2" fill="#FFFFFF" /><rect x="34" y="26" width="2" height="2" fill="#FFFFFF" /><rect x="36" y="26" width="2" height="2" fill="#FFFFFF" /><rect x="18" y="28" width="2" height="2" fill="#FFFFFF" /><rect x="20" y="28" width="2" height="2" fill="#FFFFFF" /><rect x="34" y="28" width="2" height="2" fill="#FFFFFF" /><rect x="36" y="28" width="2" height="2" fill="#FFFFFF" /><rect x="18" y="30" width="2" height="2" fill="#FFFFFF" /><rect x="20" y="30" width="2" height="2" fill="#FFFFFF" /><rect x="34" y="30" width="2" height="2" fill="#FFFFFF" /><rect x="36" y="30" width="2" height="2" fill="#FFFFFF" /><rect x="18" y="32" width="2" height="2" fill="#FFFFFF" /><rect x="20" y="32" width="2" height="2" fill="#FFFFFF" /><rect x="34" y="32" width="2" height="2" fill="#FFFFFF" /><rect x="36" y="32" width="2" height="2" fill="#FFFFFF" /><rect x="18" y="34" width="2" height="2" fill="#FFFFFF" /><rect x="20" y="34" width="2" height="2" fill="#FFFFFF" /><rect x="34" y="34" width="2" height="2" fill="#FFFFFF" /><rect x="36" y="34" width="2" height="2" fill="#FFFFFF" /><rect x="18" y="36" width="2" height="2" fill="#FFFFFF" /><rect x="20" y="36" width="2" height="2" fill="#FFFFFF" /><rect x="34" y="36" width="2" height="2" fill="#FFFFFF" /><rect x="36" y="36" width="2" height="2" fill="#FFFFFF" /><rect x="18" y="38" width="2" height="2" fill="#FFFFFF" /><rect x="20" y="38" width="2" height="2" fill="#FFFFFF" /><rect x="34" y="38" width="2" height="2" fill="#FFFFFF" /><rect x="36" y="38" width="2" height="2" fill="#FFFFFF" /><rect x="18" y="40" width="2" height="2" fill="#FFFFFF" /><rect x="20" y="40" width="2" height="2" fill="#FFFFFF" /><rect x="34" y="40" width="2" height="2" fill="#FFFFFF" /><rect x="36" y="40" width="2" height="2" fill="#FFFFFF" /></svg>