<svg width="64" height="64" xmlns="http://www.w3.org/2000/svg"><rect x="20" y="16" width="2" height="2" fill="#FFFFFF" /><rect x="22" y="16" width="2" height="2" fill="#FFFFFF" /><rect x="24" y="16" width="2" height="2" fill="#FFFFFF" /><rect x="26" y="16" width="2" height="2" fill="#FFFFFF" /><rect x="28" y="16" width="2" height="2" fill="#FFFFFF" /><rect x="30" y="16" width="2" height="2" fill="#FFFFFF" /><rect x="32" y="16" width="2" height="2" fill="#FFFFFF" /><rect x="34" y="16" width="2" height="2" fill="#FFFFFF" /><rect x="18" y="18" width="2" height="2" fill="#FFFFFF" /><rect x="20" y="18" width="2" height="2" fill="#FFFFFF" /><rect x="22" y="18" width="2" height="2" fill="#FFFFFF" /><rect x="24" y="18" width="2" height="2" fill="#FFFFFF" /><rect x="26" y="18" width="2" height="2" fill="#FFFFFF" /><rect x="28" y="18" width="2" height="2" fill="#FFFFFF" /><rect x="30" y="18" width="2" height="2" fill="#FFFFFF" /><rect x="32" y="18" width="2" height="2" fill="#FFFFFF" /><rect x="34" y="18" width="2" height="2" fill="#FFFFFF" /><rect x="36" y="18" width="2" height="2" fill="#FFFFFF" /><rect x="18" y="20" width="2" height="2" fill="#FFFFFF" /><rect x="20" y="20" width="2" height="2" fill="#FFFFFF" /><rect x="22" y="20" width="2" height="2" fill="#FFFFFF" /><rect x="24" y="20" width="2" height="2" fill="#FFFFFF" /><rect x="26" y="20" width="2" height="2" fill="#FFFFFF" /><rect x="28" y="20" width="2" height="2" fill="#FFFFFF" /><rect x="30" y="20" width="2" height="2" fill="#FFFFFF" /><rect x="32" y="20" width="2" height="2" fill="#FFFFFF" /><rect x="34" y="20" width="2" height="2" fill="#FFFFFF" /><rect x="36" y="20" width="2" height="2" fill="#FFFFFF" /><rect x="18" y="22" width="2" height="2" fill="#FFFFFF" /><rect x="20" y="22" width="2" height="2" fill="#FFFFFF" /><rect x="22" y="22" width="2" height="2" fill="#FFFFFF" /><rect x="24" y="22" width="2" height="2" fill="#FFFFFF" /><rect x="26" y="22" width="2" height="2" fill="#FFFFFF" /><rect x="28" y="22" width="2" height="2" fill="#FFFFFF" /><rect x="30" y="22" width="2" height="2" fill="#FFFFFF" /><rect x="32" y="22" width="2" height="2" fill="#FFFFFF" /><rect x="34" y="22" width="2" height="2" fill="#FFFFFF" /><rect x="36" y="22" width="2" height="2" fill="#FFFFFF" /><rect x="18" y="24" width="2" height="2" fill="#FFFFFF" /><rect x="20" y="24" width="2" height="2" fill="#FFFFFF" /><rect x="22" y="24" width="2" height="2" fill="#FFFFFF" /><rect x="24" y="24" width="2" height="2" fill="#FFFFFF" /><rect x="26" y="24" width="2" height="2" fill="#FFFFFF" /><rect x="28" y="24" width="2" height="2" fill="#FFFFFF" /><rect x="30" y="24" width="2" height="2" fill="#FFFFFF" /><rect x="32" y="24" width="2" height="2" fill="#FFFFFF" /><rect x="34" y="24" width="2" height="2" fill="#FFFFFF" /><rect x="36" y="24" width="2" height="2" fill="#FFFFFF" /></svg>